#!OML:ASF H:\Terrain\Patient Classification 1\PLAYGROUND\JustinFriday\JustinFriday.ASF
:FULLY-SPECIFIED
:DEGREES
1736
root -10.232 27.3891 -8.53674 262.921 87.6271 -18.3139
lowerback 28.7741 0.710131 0.688726
upperback 15.0908 2.79261 1.44427
thorax 1.085 2.22367 0.461126
lowerneck 8.72839 -6.64594 -4.59873
upperneck 15.7286 -9.00374 3.03392
head 4.09218 -4.37609 1.73035
rclavicle -3.97569e-016 9.66093e-014
rhumerus 33.3325 6.93716 -59.3876
rradius 83.6818
rwrist 11.8919
rhand 3.26116 -38.8449
rfingers 7.12502
rthumb 28.7101 -66.6582
lclavicle -3.97569e-016 9.66093e-014
lhumerus 42.5116 -12.518 62.9567
lradius 63.8059
lwrist -18.0714
lhand 16.5535 3.4298
lfingers 7.12502
lthumb 41.3119 28.2463
rfemur 6.74494 -1.30028 19.3307
rtibia 88.0373
rfoot 16.9123 -17.407
rtoes 21.2958
lfemur -7.35214 4.56859 0.71378
ltibia 87.9016
lfoot 28.4894 -0.0899284
ltoes 2.89975
1737
root -10.2328 27.4208 -8.52591 257.544 87.5392 -24.2835
lowerback 28.8587 0.894805 0.711412
upperback 14.9427 3.02696 1.04233
thorax 0.900207 2.35638 -0.0631322
lowerneck 8.3514 -7.0965 -0.729795
upperneck 15.9033 -9.22302 1.49639
head 3.90392 -4.30215 0.552694
rclavicle -1.59028e-014 -1.28812e-013
rhumerus 31.9273 5.03521 -59.986
rradius 84.7504
rwrist 10.11
rhand 3.76107 -37.22
rfingers 7.12502
rthumb 29.1876 -64.9514
lclavicle -1.59028e-014 -1.28812e-013
lhumerus 42.7379 -13.5568 63.1929
lradius 64.4686
lwrist -18.8683
lhand 16.2563 2.60554
lfingers 7.12502
lthumb 41.0329 27.5115
rfemur 6.70894 -1.67133 19.3976
rtibia 88.6682
rfoot 16.9287 -17.5443
rtoes 21.5337
lfemur -7.50635 4.42787 1.23939
ltibia 89.5904
lfoot 30.2111 -5.20889
ltoes -8.28741
1738
root -10.2355 27.4704 -8.52023 257.512 87.4936 -24.9989
lowerback 28.6758 1.05093 0.401708
upperback 14.9364 3.1481 1.22638
thorax 0.950258 2.38533 0.288004
lowerneck 7.76112 -6.94 -0.731658
upperneck 16.1866 -9.03889 1.64416
head 4.11883 -4.19705 0.577054
rclavicle -3.57812e-015 9.54166e-015
rhumerus 32.071 5.54611 -59.7195
rradius 85.1811
rwrist 11.7293
rhand 2.35211 -40.6
rfingers 7.12502
rthumb 27.8413 -68.5572
lclavicle -3.57812e-015 9.54166e-015
lhumerus 42.7687 -13.4673 62.3171
lradius 65.8693
lwrist -17.4144
lhand 15.0416 3.67535
lfingers 7.12502
lthumb 39.8908 28.9343
rfemur 6.53925 -1.794 19.4559
rtibia 89.2978
rfoot 17.1358 -17.3722
rtoes 21.535
lfemur -7.49865 4.47124 1.66223
ltibia 91.3037
lfoot 30.487 -7.46866
ltoes -11.7132
1739
root -10.2324 27.5197 -8.52689 259.625 87.4568 -23.6091
lowerback 28.4224 1.06479 0.0632914
upperback 15.1893 3.11489 1.92301
thorax 1.30058 2.32603 1.27109
lowerneck 5.62511 -6.11772 -5.07434
upperneck 18.2331 -8.4069 4.24982
head 4.97489 -3.97932 1.94468
rclavicle -6.75868e-015 -5.04913e-014
rhumerus 32.9874 5.14828 -58.7381
rradius 85.0554
rwrist 10.5532
rhand 2.93813 -35.6276
rfingers 7.12502
rthumb 28.4014 -63.4927
lclavicle -6.75868e-015 -5.04913e-014
lhumerus 42.3308 -12.5673 62.7012
lradius 67.6469
lwrist -17.1431
lhand 13.9599 4.10546
lfingers 7.12502
lthumb 38.8717 29.6621
rfemur 6.26291 -1.68661 19.5209
rtibia 89.9537
rfoot 17.5191 -17.0276
rtoes 21.3076
lfemur -7.46498 4.69311 2.08625
ltibia 93.102
lfoot 30.1658 -6.69817
ltoes -9.41808
1740
root -10.2225 27.5608 -8.53271 259.748 87.4141 -24.0515
lowerback 28.4313 1.14323 0.107455
upperback 15.0624 3.21706 1.96265
thorax 1.14713 2.37093 1.2552
lowerneck 6.47839 -6.46598 -2.74657
upperneck 16.4552 -8.5766 2.31339
head 4.59675 -4.06126 1.09652
rclavicle 8.15017e-015 -7.95139e-015
rhumerus 32.4446 5.11401 -58.4259
rradius 85.7844
rwrist 11.1291
rhand 2.36365 -34.6668
rfingers 7.12502
rthumb 27.8523 -62.6222
lclavicle 8.15017e-015 -7.95139e-015
lhumerus 41.5845 -12.5115 61.9601
lradius 69.5058
lwrist -16.8541
lhand 13.4435 4.81757
lfingers 7.12502
lthumb 38.3846 30.5111
rfemur 6.15511 -1.75015 19.4275
rtibia 90.6044
rfoot 17.8124 -16.6052
rtoes 21.1817
lfemur -7.31821 4.96905 2.67463
ltibia 94.9647
lfoot 29.6542 -5.47041
ltoes -5.42988
1741
root -10.2084 27.5895 -8.52184 258.432 87.3759 -25.8046
lowerback 28.6405 1.2287 -0.234571
upperback 14.9556 3.24913 2.37947
thorax 0.891204 2.3418 1.88157
lowerneck 5.40335 -5.59405 -6.85822
upperneck 18.986 -7.93568 5.97313
head 5.35541 -3.74547 2.78393
rclavicle 2.16675e-014 7.95139e-016
rhumerus 32.1783 5.50948 -57.5282
rradius 86.5024
rwrist 11.5235
rhand 2.86766 -30.2779
rfingers 7.12502
rthumb 28.3341 -58.1542
lclavicle 2.16675e-014 7.95139e-016
lhumerus 41.1316 -11.7831 63.8407
lradius 69.7039
lwrist -19.4212
lhand 13.9226 3.43786
lfingers 7.12502
lthumb 38.8365 29.0045
rfemur 6.15991 -2.01867 19.3246
rtibia 91.2702
rfoot 17.6984 -16.509
rtoes 21.6916
lfemur -7.09408 5.2085 3.44479
ltibia 96.8652
lfoot 29.4202 -5.67934
ltoes -3.51538
